<?xml version="1.0" encoding="utf-8"?>
<!-- Generator: Adobe Illustrator 17.0.0, SVG Export Plug-In . SVG Version: 6.00 Build 0)  -->
<!DOCTYPE svg PUBLIC "-//W3C//DTD SVG 1.1//EN" "http://www.w3.org/Graphics/SVG/1.1/DTD/svg11.dtd">
<svg version="1.1" id="图层_1" xmlns="http://www.w3.org/2000/svg" xmlns:xlink="http://www.w3.org/1999/xlink" x="0px" y="0px"
	 width="20px" height="20px" viewBox="0 0 20 20" enable-background="new 0 0 20 20" xml:space="preserve">
<title>关闭</title>
<desc>Created with Sketch.</desc>
<path fill="#FF5D4A" d="M17.177,16.292l-6.28-6.28l6.28-6.28c0.191-0.191,0.188-0.51-0.01-0.709l-0.165-0.165
	c-0.206-0.206-0.516-0.203-0.709-0.01l-6.28,6.28l-6.28-6.28c-0.191-0.191-0.51-0.189-0.709,0.01L2.859,3.024
	C2.654,3.23,2.656,3.54,2.85,3.733l6.28,6.28l-6.28,6.28c-0.191,0.191-0.189,0.511,0.01,0.709l0.165,0.165
	c0.206,0.206,0.516,0.203,0.709,0.01l6.28-6.28l6.28,6.28c0.191,0.191,0.511,0.188,0.709-0.01l0.165-0.165
	C17.372,16.796,17.37,16.486,17.177,16.292z"/>
</svg>
